<svg id="calendar" xmlns="http://www.w3.org/2000/svg" viewBox="0 0 61.5 65.5"><path d="M5.8 59.9h10.3V49.6H5.8v10.3zm12.6 0h11.4V49.6H18.4v10.3zM5.8 47.4h10.3V35.9H5.8v11.5zm12.6 0h11.4V35.9H18.4v11.5zM5.8 33.6h10.3V23.4H5.8v10.2zm26.3 26.3h11.4V49.6H32.1v10.3zM18.4 33.6h11.4V23.4H18.4v10.2zm27.4 26.3h10.3V49.6H45.8v10.3zM32.1 47.4h11.4V35.9H32.1v11.5zM19.5 16.5V6.2c0-.3-.1-.6-.3-.8s-.5-.3-.8-.3h-2.3c-.3 0-.6.1-.8.3s-.3.5-.3.8v10.3c0 .3.1.6.3.8s.5.3.8.3h2.3c.3 0 .6-.1.8-.3s.3-.5.3-.8zm26.3 30.9h10.3V35.9H45.8v11.5zM32.1 33.6h11.4V23.4H32.1v10.2zm13.7 0h10.3V23.4H45.8v10.2zM47 16.5V6.2c0-.3-.1-.6-.3-.8s-.5-.3-.8-.3h-2.3c-.3 0-.6.1-.8.3-.2.2-.3.5-.3.8v10.3c0 .3.1.6.3.8.2.2.5.3.8.3h2.3c.3 0 .6-.1.8-.3s.3-.5.3-.8zm13.7-2.3v45.7c0 1.2-.5 2.3-1.4 3.2-.9.9-2 1.4-3.2 1.4H5.8c-1.2 0-2.3-.5-3.2-1.4-.9-.9-1.4-2-1.4-3.2V14.2c0-1.2.5-2.3 1.4-3.2s2-1.4 3.2-1.4h4.6V6.2c0-1.6.6-2.9 1.7-4s2.5-1.7 4-1.7h2.3c1.6 0 2.9.6 4 1.7s1.7 2.5 1.7 4v3.4h13.7V6.2c0-1.6.6-2.9 1.7-4S42 .5 43.5.5h2.3c1.6 0 2.9.6 4 1.7s1.7 2.5 1.7 4v3.4h4.6c1.2 0 2.3.5 3.2 1.4.9.9 1.4 2 1.4 3.2z"/></svg>