<svg id="clock" xmlns="http://www.w3.org/2000/svg" viewBox="0 0 213 305.5"><path d="M152.7 5.4l12 47.5c1 4 2 8.1 3.1 12.6-16.4-9.5-33.4-14.4-51.8-14.4S80.8 56 64.5 65.5c1.5-6.1 2.9-11.6 4.3-17.1 3.6-14.3 7.2-28.7 10.9-43h73z"/><path d="M26.6 169.7H16.2c-5.8 0-9.5-3.7-9.5-9.4v-18c-.2-4.9 3.7-9 8.5-9.2H26.5c6.7-28.6 22.7-50.1 48.9-63.4 19.1-9.7 39.4-12 60.4-7.5 49.2 10.9 80.3 59.7 69.4 108.9-8 35.9-36.7 63.5-72.9 70.1-24.3 4.3-46.9-.4-67.4-14.3S32 193.8 26.6 169.7zm89.5 54.6c40.3 0 73-32.6 73-72.8s-32.6-73-72.8-73c-40.3 0-73 32.6-73 72.8v.3c0 39.9 32.8 72.7 72.8 72.7z"/><path d="M64.9 237.7c31.7 18.7 71 18.7 102.6-.1-.2 1.2-.4 2.2-.6 3.1-4.5 18.1-9.1 36.2-13.6 54.4-.4 1.8-1.1 2.4-3 2.4-22.8-.1-45.6-.1-68.4 0-1.4 0-2.5.1-2.9-1.8-4.7-19-9.4-37.9-14.2-56.9.1-.4.1-.7.1-1.1zm105.8-77.3h-63.5V96.9h18v45.3h45.5v18.2z"/></svg>