<svg id="cog" xmlns="http://www.w3.org/2000/svg" viewBox="0 0 59.5 64"><path d="M39.1 32c0-2.5-.9-4.7-2.7-6.5-1.8-1.8-3.9-2.7-6.5-2.7-2.5 0-4.7.9-6.5 2.7-1.8 1.8-2.7 3.9-2.7 6.5s.9 4.7 2.7 6.5c1.8 1.8 3.9 2.7 6.5 2.7 2.5 0 4.7-.9 6.5-2.7 1.8-1.8 2.7-4 2.7-6.5zm18.3-3.9V36c0 .3-.1.6-.3.8-.2.3-.4.4-.7.5l-6.6 1c-.5 1.3-.9 2.4-1.4 3.3.8 1.2 2.1 2.8 3.8 4.9.2.3.4.6.4.9 0 .3-.1.6-.3.8-.6.9-1.8 2.2-3.5 3.9-1.7 1.7-2.8 2.5-3.4 2.5-.3 0-.6-.1-.9-.3l-4.9-3.9c-1 .5-2.1 1-3.3 1.4-.4 3.2-.7 5.5-1 6.6-.2.7-.6 1-1.3 1h-8c-.3 0-.6-.1-.9-.3s-.4-.5-.4-.8l-1-6.6c-1.2-.4-2.2-.8-3.2-1.3l-5 3.8c-.2.2-.5.3-.9.3-.3 0-.6-.1-.9-.4-3-2.7-5-4.7-5.9-6-.2-.2-.3-.5-.3-.8 0-.3.1-.6.3-.8.4-.5 1-1.3 1.8-2.4.9-1.1 1.5-1.9 1.9-2.5-.6-1.2-1.1-2.4-1.5-3.5l-6.5-1c-.3 0-.6-.2-.8-.4s-.3-.5-.3-.8V28c0-.3.1-.6.3-.8s.4-.4.7-.5l6.6-1c.3-1.1.8-2.2 1.4-3.3-1-1.4-2.2-3-3.8-4.9-.2-.3-.4-.6-.4-.9 0-.2.1-.5.3-.8.6-.9 1.8-2.1 3.5-3.8s2.9-2.6 3.4-2.6c.3 0 .6.1.9.4l4.9 3.8c1-.5 2.1-1 3.3-1.4.4-3.2.7-5.5 1-6.6.2-.7.6-1 1.3-1h7.9c.3 0 .6.1.9.3.3.2.4.5.4.8l1 6.6c1.2.4 2.2.8 3.2 1.3l5.1-3.8c.2-.2.5-.3.9-.3.3 0 .6.1.9.4 3.1 2.8 5 4.9 5.9 6.1.2.2.3.5.3.8 0 .3-.1.6-.3.8-.4.5-1 1.3-1.8 2.4-.9 1.1-1.5 1.9-1.9 2.5.6 1.2 1.1 2.4 1.5 3.5l6.5 1c.3 0 .6.2.8.4.2.1.3.4.3.7z"/></svg>