<svg id="envelope" xmlns="http://www.w3.org/2000/svg" viewBox="0 0 67.5 53.7"><path d="M65.7 18v28.4c0 1.6-.6 2.9-1.7 4s-2.5 1.7-4 1.7H7.4c-1.6 0-2.9-.6-4-1.7s-1.7-2.5-1.7-4V18c1 1.2 2.2 2.2 3.6 3.1 8.6 5.9 14.5 10 17.8 12.3 1.4 1 2.5 1.8 3.3 2.3s2 1.1 3.4 1.7c1.4.6 2.7.9 3.9.9h.1c1.2 0 2.5-.3 3.9-.9 1.4-.6 2.5-1.2 3.4-1.7s1.9-1.3 3.3-2.3c4-2.9 10-7 17.8-12.3 1.3-.9 2.4-1.9 3.5-3.1zm0-10.5c0 1.9-.6 3.7-1.7 5.4s-2.6 3.2-4.4 4.4c-9 6.2-14.5 10.1-16.7 11.6-.2.2-.7.5-1.5 1.1s-1.4 1-1.9 1.4c-.5.3-1.1.7-1.9 1.2-.7.4-1.4.8-2.1 1s-1.2.3-1.8.3h-.1c-.5 0-1.1-.1-1.8-.3-.6-.2-1.3-.5-2.1-1-.7-.4-1.3-.8-1.9-1.2-.4-.4-1-.8-1.8-1.4-.8-.6-1.3-.9-1.5-1.1-2.2-1.5-5.3-3.7-9.4-6.5s-6.5-4.5-7.3-5.1c-1.5-1-2.9-2.4-4.2-4.1s-2-3.4-2-4.9c0-1.9.5-3.4 1.5-4.6s2.4-1.9 4.2-1.9H60c1.5 0 2.9.6 4 1.7s1.7 2.5 1.7 4z"/></svg>