<svg id="gift" xmlns="http://www.w3.org/2000/svg" viewBox="0 0 57.8 52.8"><path d="M34.6 44.2V18.6H23.2v25.6c0 .6.2 1.1.6 1.4.4.3 1 .5 1.6.5h6.9c.7 0 1.2-.2 1.6-.5s.7-.8.7-1.4zM18.4 14h7l-4.5-5.8c-.6-.7-1.4-1.1-2.5-1.1-1 0-1.8.3-2.4 1-.7.7-1 1.5-1 2.4 0 1 .3 1.8 1 2.4.6.8 1.4 1.1 2.4 1.1zm24.5-3.4c0-1-.3-1.8-1-2.4-.7-.7-1.5-1-2.4-1-1 0-1.8.4-2.5 1.1L32.6 14h6.9c1 0 1.8-.3 2.4-1s1-1.4 1-2.4zm13.5 9.2v11.4c0 .3-.1.6-.3.8-.2.2-.5.3-.8.3h-3.4v14.9c0 1-.3 1.8-1 2.4-.7.7-1.5 1-2.4 1h-39c-1 0-1.8-.3-2.4-1-.7-.7-1-1.5-1-2.4V32.3H2.6c-.3 0-.6-.1-.8-.3s-.3-.5-.3-.8V19.8c0-.3.1-.6.3-.8s.5-.3.8-.3h15.7c-2.2 0-4.1-.8-5.7-2.3-1.6-1.6-2.3-3.4-2.3-5.7 0-2.2.8-4.1 2.3-5.7s3.4-2.3 5.7-2.3c2.5 0 4.5.9 6 2.8l4.6 5.9 4.6-5.9c1.5-1.8 3.5-2.8 6-2.8 2.2 0 4.1.8 5.7 2.3 1.6 1.6 2.3 3.4 2.3 5.7 0 2.2-.8 4.1-2.3 5.7-1.6 1.6-3.4 2.3-5.7 2.3h15.7c.3 0 .6.1.8.3.2.1.4.4.4.8z"/></svg>