<svg id="group" xmlns="http://www.w3.org/2000/svg" viewBox="0 0 70.4 65.9"><path d="M21.9 32.8c-3.9.1-7 1.6-9.5 4.6H7.7c-2 0-3.6-.5-4.9-1.4s-2-2.4-2-4.2C.8 23.2 2.2 19 5.2 19c.1 0 .7.3 1.6.8s2.1 1 3.5 1.5 2.8.8 4.3.8c1.6 0 3.2-.3 4.8-.8-.1.9-.2 1.7-.2 2.4-.2 3.2.8 6.3 2.7 9.1zm38.3 22.7c0 2.9-.9 5.1-2.6 6.8-1.7 1.7-4 2.5-6.9 2.5H19.4c-2.9 0-5.2-.8-6.9-2.5-1.7-1.7-2.6-3.9-2.6-6.8 0-1.3 0-2.5.1-3.7s.3-2.5.5-3.9c.3-1.4.6-2.7.9-3.9.4-1.2.9-2.4 1.5-3.5s1.4-2.1 2.2-2.9c.8-.8 1.9-1.4 3.1-1.9 1.2-.5 2.5-.7 4-.7.2 0 .8.3 1.5.8s1.7 1.1 2.6 1.7c1 .6 2.2 1.2 3.8 1.7s3.3.8 4.9.8 3.2-.3 4.8-.8c1.6-.5 2.9-1.1 3.8-1.7 1-.6 1.8-1.2 2.6-1.7s1.3-.8 1.5-.8c1.5 0 2.8.2 4 .7s2.2 1.1 3.1 1.9c.8.8 1.6 1.8 2.2 2.9s1.2 2.3 1.5 3.5c.4 1.2.7 2.5.9 3.9s.4 2.7.5 3.9.3 2.4.3 3.7zM23.6 9.9c0 2.5-.9 4.7-2.7 6.5-1.8 1.7-3.9 2.6-6.4 2.6s-4.7-.9-6.5-2.6-2.7-3.9-2.7-6.5.9-4.7 2.7-6.5S11.9.7 14.5.7s4.7.9 6.5 2.7c1.7 1.8 2.6 4 2.6 6.5zm25.2 13.7c0 3.8-1.3 7-4 9.7-2.7 2.7-5.9 4-9.7 4-3.8 0-7-1.3-9.7-4s-4-5.9-4-9.7c0-3.8 1.3-7 4-9.7 2.7-2.7 5.9-4 9.7-4s7 1.3 9.7 4 4 5.9 4 9.7zm20.5 8c0 1.9-.7 3.3-2 4.2s-3 1.4-4.9 1.4h-4.8c-2.5-2.9-5.6-4.5-9.5-4.6 1.9-2.8 2.9-5.8 2.9-9.1 0-.7-.1-1.5-.2-2.4 1.6.5 3.2.8 4.8.8 1.4 0 2.8-.3 4.3-.8 1.4-.5 2.6-1 3.5-1.5.9-.5 1.4-.8 1.6-.8 2.8.2 4.3 4.4 4.3 12.8zM64.8 9.9c0 2.5-.9 4.7-2.7 6.5s-4 2.6-6.5 2.6-4.7-.9-6.5-2.7c-1.8-1.8-2.7-3.9-2.7-6.5 0-2.5.9-4.7 2.7-6.5C50.9 1.5 53 .6 55.6.6c2.5 0 4.7.9 6.5 2.7s2.7 4.1 2.7 6.6z"/></svg>