<svg id="home" xmlns="http://www.w3.org/2000/svg" viewBox="0 0 59 53.7"><path d="M50.3 30.8v17.1c0 .6-.2 1.2-.7 1.6-.5.5-1 .7-1.6.7H34.3V36.5h-9.1v13.7H11.4c-.6 0-1.2-.2-1.6-.7-.5-.5-.7-1-.7-1.6V30.8v-.1-.1l20.5-16.9 20.5 16.9c.2 0 .2.1.2.2zm8-2.5L56 30.9c-.2.2-.4.3-.8.4h-.1c-.3 0-.6-.1-.8-.3L29.7 10.5 5 31.1c-.3.2-.6.3-.9.3-.3 0-.6-.2-.8-.4l-2.2-2.6c-.2-.2-.3-.5-.3-.8 0-.3.2-.6.4-.8L27 5.3c.8-.6 1.7-.9 2.7-.9 1 0 2 .3 2.7.9l8.7 7.3v-7c0-.3.1-.6.3-.8.2-.2.5-.3.8-.3h6.9c.3 0 .6.1.8.3.2.2.3.5.3.8v14.6l7.8 6.5c.2.2.4.4.4.8s0 .6-.1.8z"/></svg>