<svg id="paper_clip" xmlns="http://www.w3.org/2000/svg" viewBox="0 0 53.5 64"><path d="M51.4 49.5c0 2.8-.9 5.1-2.8 7-1.9 1.9-4.2 2.8-7 2.8-3.2 0-6-1.2-8.4-3.6L5.4 28c-2.7-2.7-4-6-4-9.7 0-3.8 1.3-7 3.9-9.6s5.8-4 9.6-4 7 1.3 9.8 4l21.6 21.6c.2.2.4.5.4.8 0 .4-.4.9-1.1 1.7-.7.7-1.3 1.1-1.7 1.1-.3 0-.6-.1-.8-.4L21.4 11.9c-1.9-1.8-4-2.8-6.5-2.8s-4.7.9-6.4 2.7-2.5 4-2.5 6.5.9 4.7 2.7 6.5l27.7 27.8c1.5 1.5 3.2 2.3 5.2 2.3 1.5 0 2.8-.5 3.8-1.5s1.5-2.3 1.5-3.8c0-2-.8-3.7-2.3-5.2L23.9 23.5c-.6-.6-1.3-.9-2.1-.9-.7 0-1.3.2-1.7.7-.5.5-.7 1-.7 1.7 0 .8.3 1.5.9 2.1l14.6 14.6c.2.2.4.5.4.8 0 .4-.4.9-1.1 1.7-.7.7-1.3 1.1-1.7 1.1-.3 0-.5-.1-.8-.4L17 30.4c-1.5-1.5-2.3-3.2-2.3-5.3 0-2 .7-3.6 2-5 1.4-1.4 3-2 5-2 2.1 0 3.9.8 5.3 2.3l20.8 20.8c2.4 2.2 3.6 5 3.6 8.3z"/></svg>