<svg id="search" xmlns="http://www.w3.org/2000/svg" viewBox="0 0 62.2 62.5"><path d="M42.7 26.7c0-4.4-1.6-8.2-4.7-11.3-3.1-3.1-6.9-4.7-11.3-4.7s-8.2 1.6-11.3 4.7-4.7 6.9-4.7 11.3 1.6 8.2 4.7 11.3c3.1 3.1 6.9 4.7 11.3 4.7S34.9 41.1 38 38s4.7-6.9 4.7-11.3zM61 56.4c0 1.2-.5 2.3-1.4 3.2s-2 1.4-3.2 1.4c-1.3 0-2.4-.5-3.2-1.4L41 47.4c-4.3 3-9 4.4-14.3 4.4-3.4 0-6.7-.7-9.8-2s-5.8-3.1-8-5.4c-2.3-2.3-4-4.9-5.4-8s-2-6.4-2-9.8.7-6.7 2-9.8 3.1-5.8 5.4-8 4.9-4 8-5.4 6.4-2 9.8-2 6.7.7 9.8 2 5.8 3.1 8 5.4c2.2 2.2 4 4.9 5.4 8 1.3 3.1 2 6.4 2 9.8 0 5.2-1.5 10-4.4 14.3l12.3 12.3c.8.9 1.2 2 1.2 3.2z"/></svg>