<svg id="basket" xmlns="http://www.w3.org/2000/svg" viewBox="0 0 62 55"><path d="M24.1 48.6c0 1.2-.5 2.3-1.4 3.2-.9.9-2 1.4-3.2 1.4-1.2 0-2.3-.5-3.2-1.4-.9-.9-1.4-2-1.4-3.2 0-1.2.5-2.3 1.4-3.2.9-.9 2-1.4 3.2-1.4 1.2 0 2.3.5 3.2 1.4 1 .9 1.4 2 1.4 3.2zm32 0c0 1.2-.5 2.3-1.4 3.2-.9.9-2 1.4-3.2 1.4-1.2 0-2.3-.5-3.2-1.4-.9-.9-1.4-2-1.4-3.2 0-1.2.5-2.3 1.4-3.2.9-.9 2-1.4 3.2-1.4 1.2 0 2.3.5 3.2 1.4 1 .9 1.4 2 1.4 3.2zm4.6-38.8V28c0 .6-.2 1.1-.6 1.5-.4.4-.9.7-1.4.8l-37.3 4.4c.3 1.4.5 2.3.5 2.5 0 .4-.3 1.1-.9 2.3h32.9c.6 0 1.2.2 1.6.7.5.5.7 1 .7 1.6 0 .6-.2 1.2-.7 1.6-.5.5-1 .7-1.6.7H17.3c-.6 0-1.2-.2-1.6-.7-.5-.5-.7-1-.7-1.6 0-.3.1-.6.3-1.1s.4-.9.6-1.3c.2-.4.4-.8.8-1.4.3-.6.5-.9.6-1.1L10.8 7.5H3.5c-.6 0-1.2-.2-1.6-.7s-.7-1-.7-1.6.3-1.2.7-1.6 1-.7 1.6-.7h9.1c.4 0 .7.1 1 .2.3.2.5.3.7.6.2.2.3.5.5.9.1.4.2.7.3.9 0 .3.1.6.2 1.1.1.5.1.8.2.9h42.9c.6 0 1.2.2 1.6.7s.7.9.7 1.6z"/></svg>