<svg id="signin" xmlns="http://www.w3.org/2000/svg" viewBox="0 0 58 49.1"><path d="M43.8 24.8c0 .6-.2 1.2-.7 1.6L23.7 45.8c-.5.5-1 .7-1.6.7s-1.2-.2-1.6-.7-.7-1-.7-1.6V33.9h-16c-.6 0-1.2-.2-1.6-.7-.5-.5-.7-1-.7-1.6V17.9c0-.6.2-1.2.7-1.6s1-.7 1.6-.7h16V5.3c0-.6.2-1.2.7-1.6.5-.5 1-.7 1.6-.7s1.2.2 1.6.7l19.4 19.4c.5.5.7 1 .7 1.7zm12.6-12.6v25.1c0 2.8-1 5.3-3 7.3s-4.4 3-7.3 3H34.6c-.3 0-.6-.1-.8-.3-.2-.2-.3-.5-.3-.8v-.7-.9c0-.2 0-.5.1-.8.1-.3.2-.5.4-.7.2-.2.4-.2.7-.2h11.4c1.6 0 2.9-.6 4-1.7s1.7-2.5 1.7-4V12.2c0-1.6-.6-2.9-1.7-4s-2.5-1.7-4-1.7H34.5l-.4-.1-.3-.2-.3-.3-.1-.5v-.7-.9c0-.3 0-.5.1-.8.1-.3.2-.5.4-.7s.4-.2.7-.2H46c2.8 0 5.3 1 7.3 3s3.1 4.2 3.1 7.1z"/></svg>