<svg id="thumbs_up" xmlns="http://www.w3.org/2000/svg" viewBox="0 0 57.2 62.2"><path d="M10.3 49.2c0-.6-.2-1.2-.7-1.6-.5-.5-1-.7-1.6-.7-.6 0-1.2.2-1.6.7-.5.5-.7 1-.7 1.6s.2 1.2.7 1.6c.5.5 1 .7 1.6.7.6 0 1.2-.2 1.6-.7.5-.5.7-1 .7-1.6zm41.2-20.6c0-1.2-.5-2.3-1.4-3.2-.9-.9-2-1.4-3.2-1.4H34.3c0-1.4.6-3.3 1.7-5.7s1.7-4.3 1.7-5.7c0-2.3-.4-4.1-1.1-5.2S34.3 5.7 32 5.7c-.6.6-1.1 1.6-1.4 3-.3 1.4-.6 2.9-1.1 4.5-.4 1.6-1.1 2.9-2.1 3.9-.5.5-1.4 1.6-2.8 3.3-.1.1-.4.5-.8 1.1s-.8 1.1-1.1 1.5c-.3.4-.7.9-1.2 1.5s-1 1.2-1.4 1.6-.9.8-1.4 1.3-1 .7-1.4 1c-.5.2-.9.3-1.3.3h-1.1v22.9H16c.3 0 .7 0 1.1.1.4.1.8.1 1.2.2.3.1.8.2 1.4.4s1 .3 1.3.4c.3.1.7.2 1.3.4.6.2.9.3 1 .4 5 1.7 9.1 2.6 12.2 2.6h4.3c4.6 0 6.9-2 6.9-6 0-.6-.1-1.3-.2-2 .7-.4 1.3-1 1.7-1.9.4-.9.6-1.7.6-2.6 0-.9-.2-1.7-.6-2.5 1.3-1.2 1.9-2.6 1.9-4.3 0-.6-.1-1.3-.4-2s-.5-1.3-.9-1.7c.8 0 1.4-.6 1.9-1.7s.8-2 .8-2.8zm4.5 0c0 2.1-.6 4.1-1.8 5.8.2.8.3 1.6.3 2.5 0 1.8-.5 3.5-1.4 5.1.1.5.1 1 .1 1.5 0 2.4-.7 4.5-2.1 6.4 0 3.3-1 5.9-3 7.8-2 1.9-4.8 2.9-8.1 2.9h-4.6c-2.3 0-4.5-.3-6.8-.8-2.2-.5-4.8-1.3-7.7-2.3-2.8-1-4.4-1.4-4.9-1.4H5.7c-1.3 0-2.3-.4-3.2-1.3s-1.3-2-1.3-3.2v-23c0-1.3.4-2.3 1.3-3.2s2-1.3 3.2-1.3h9.8c.9-.6 2.5-2.4 4.9-5.5 1.4-1.8 2.7-3.3 3.8-4.6.6-.6 1-1.6 1.3-3.1.3-1.4.6-2.9 1.1-4.5.5-1.6 1.2-2.9 2.2-3.9.9-.9 2-1.3 3.2-1.3 2 0 3.8.4 5.4 1.2s2.8 2 3.6 3.6c.8 1.6 1.3 3.9 1.3 6.6 0 2.2-.6 4.5-1.7 6.9h6.3c2.5 0 4.6.9 6.4 2.7 1.8 1.8 2.7 3.9 2.7 6.4z"/></svg>