<svg id="twitter" xmlns="http://www.w3.org/2000/svg" viewBox="0 0 58.3 58.1"><path d="M47.3 18.8c-1.3.6-2.8 1-4.3 1.2 1.6-1 2.7-2.3 3.3-4.2-1.5.9-3.1 1.5-4.8 1.8-1.5-1.6-3.3-2.4-5.5-2.4-2.1 0-3.8.7-5.3 2.2-1.5 1.5-2.2 3.2-2.2 5.3 0 .7.1 1.3.2 1.7-3.1-.2-6-.9-8.6-2.3s-5-3.2-6.9-5.5c-.7 1.2-1 2.5-1 3.8 0 2.7 1.1 4.8 3.3 6.3-1.1 0-2.3-.3-3.6-.9v.1c0 1.8.6 3.4 1.8 4.8 1.2 1.4 2.7 2.3 4.4 2.6-.7.2-1.3.3-1.8.3-.3 0-.8 0-1.4-.1.5 1.5 1.4 2.7 2.7 3.7 1.3 1 2.7 1.5 4.3 1.5-2.8 2.1-5.9 3.2-9.3 3.2-.6 0-1.2 0-1.8-.1 3.5 2.2 7.4 3.4 11.5 3.4 2.7 0 5.2-.4 7.5-1.3 2.3-.8 4.3-2 6-3.4 1.7-1.4 3.1-3 4.3-4.9 1.2-1.8 2.1-3.8 2.7-5.8s.9-4 .9-6v-1c1.4-1.2 2.6-2.5 3.6-4zm9.2-6.9v34.3c0 2.8-1 5.3-3 7.3s-4.4 3-7.3 3H11.9c-2.8 0-5.3-1-7.3-3s-3-4.4-3-7.3V11.9c0-2.8 1-5.3 3-7.3s4.4-3 7.3-3h34.3c2.8 0 5.3 1 7.3 3s3 4.4 3 7.3z"/></svg>