<svg id="vk" xmlns="http://www.w3.org/2000/svg" viewBox="0 0 69.8 64"><path d="M69.2 18.6c.5 1.5-1.2 5-5.4 10.5-.6.8-1.3 1.8-2.3 3-1 1.2-1.6 2.1-2 2.6s-.7 1.1-1.1 1.8c-.4.7-.5 1.2-.4 1.5.1.3.2.7.5 1.2s.6 1 1.2 1.5c.5.5 1.2 1.2 2 1.9.1 0 .2.1.2.1 3.4 3.1 5.6 5.8 6.8 7.9.1.1.1.3.2.4.1.2.2.5.3.9.1.5.1.9 0 1.2s-.4.7-.9 1c-.5.3-1.2.4-2.1.4l-9.2.3c-.6.1-1.2.1-2-.2-.8-.2-1.4-.5-1.9-.8l-.7-.4c-.7-.5-1.5-1.3-2.5-2.3-1-1-1.8-1.9-2.4-2.8-.7-.8-1.4-1.5-2.2-2.1-.8-.6-1.4-.7-2-.6-.1 0-.2.1-.3.1s-.3.2-.6.5-.5.6-.8 1.1-.4 1-.6 1.9c-.2.8-.3 1.7-.2 2.8 0 .4 0 .7-.1 1s-.2.5-.3.7l-.1.2c-.4.5-1.1.7-1.9.8h-4.1c-1.7.1-3.4-.1-5.2-.6-1.8-.5-3.4-1.1-4.7-1.9-1.3-.8-2.6-1.6-3.7-2.4s-1.9-1.5-2.5-2.1l-.9-.9c-.2-.2-.6-.6-1-1.1-.4-.5-1.3-1.6-2.6-3.3s-2.5-3.5-3.8-5.4-2.7-4.4-4.4-7.5S2.4 23.3.9 20c-.1-.4-.2-.7-.2-1s0-.5.1-.6l.2-.2c.4-.5 1-.7 2-.7l9.8-.1c.3 0 .6.1.8.2.3.1.5.2.6.3l.2.1c.4.3.7.6.9 1.1.5 1.2 1 2.4 1.6 3.7s1.1 2.2 1.5 2.9l.6 1c.7 1.4 1.4 2.7 2 3.7.6 1 1.2 1.9 1.7 2.4.5.6 1 1 1.5 1.4.5.3.9.5 1.2.5.3 0 .7-.1 1-.2l.2-.2c.1-.1.2-.4.4-.8s.4-1 .5-1.7c.1-.7.2-1.7.3-2.9.1-1.2.1-2.7 0-4.5 0-1-.2-1.8-.3-2.6s-.3-1.3-.5-1.6l-.2-.4c-.6-.8-1.6-1.3-3-1.5-.3 0-.2-.3.2-.9.4-.5.8-.8 1.4-1.1 1.3-.6 4.1-.9 8.5-.9 2 0 3.6.2 4.8.5.5.1.9.3 1.2.5.3.2.6.5.7.9.2.4.3.8.4 1.1s.1.9.1 1.6v2c0 .6-.1 1.5-.1 2.5 0 1.1-.1 2-.1 2.9v3.2c0 .4.1.9.1 1.4.1.6.2 1 .4 1.4.2.4.5.7.8.9.2 0 .4.1.6.1s.5-.1.9-.4c.4-.3.9-.7 1.4-1.2.5-.5 1.1-1.3 1.9-2.4.7-1.1 1.5-2.4 2.4-3.8 1.4-2.5 2.7-5.2 3.8-8 .1-.2.2-.4.4-.6.1-.2.3-.3.4-.4l.1-.1.2-.1.5-.1h.7l10.3-.1c.9-.1 1.7-.1 2.3.1.6.2 1 .4 1.1.6v.7z"/></svg>